<svg xmlns="http://www.w3.org/2000/svg" xmlns:xlink="http://www.w3.org/1999/xlink" width="282" height="138" viewBox="0 0 282 138"><defs><style>.a,.b{fill:#fff;}.af,.ah,.ai,.aj,.b,.f{fill-rule:evenodd;}.c{fill:#1d4354;}.d{mask:url(#a);}.e{mask:url(#b);}.f{fill:#2f5a6e;}.g{mask:url(#c);}.h{mask:url(#d);}.i{mask:url(#e);}.j{mask:url(#f);}.k{mask:url(#g);}.l{mask:url(#h);}.m{mask:url(#i);}.n{mask:url(#j);}.o{mask:url(#k);}.p{mask:url(#l);}.q{mask:url(#m);}.r{mask:url(#n);}.s{mask:url(#o);}.t{mask:url(#p);}.u{mask:url(#q);}.v{mask:url(#r);}.w{mask:url(#s);}.x{mask:url(#t);}.y{mask:url(#u);}.z{mask:url(#v);}.aa{mask:url(#w);}.ab{mask:url(#x);}.ac{mask:url(#y);}.ad{mask:url(#z);}.ae{mask:url(#aa);}.af{fill:#336278;}.ag{mask:url(#ab);}.ah{fill:#6fda44;}.ai{fill:#295164;}.aj{fill:#33637a;}</style><mask id="a" x="0" y="0" width="282" height="138" maskUnits="userSpaceOnUse"><rect class="a" width="282" height="138"/></mask><mask id="b" x="3.23" y="5.39" width="1.45" height="1.45" maskUnits="userSpaceOnUse"><polygon class="b" points="3.23 5.39 4.68 5.39 4.68 6.84 3.23 6.84 3.23 5.39"/></mask><mask id="c" x="14.64" y="5.39" width="1.45" height="1.45" maskUnits="userSpaceOnUse"><polygon class="b" points="14.64 5.39 16.09 5.39 16.09 6.84 14.64 6.84 14.64 5.39"/></mask><mask id="d" x="26.05" y="5.39" width="1.45" height="1.45" maskUnits="userSpaceOnUse"><polygon class="b" points="26.05 5.39 27.5 5.39 27.5 6.84 26.05 6.84 26.05 5.39"/></mask><mask id="e" x="37.46" y="5.39" width="1.45" height="1.45" maskUnits="userSpaceOnUse"><polygon class="b" points="37.46 5.39 38.91 5.39 38.91 6.84 37.46 6.84 37.46 5.39"/></mask><mask id="f" x="48.88" y="5.39" width="1.45" height="1.45" maskUnits="userSpaceOnUse"><polygon class="b" points="48.88 5.39 50.33 5.39 50.33 6.84 48.88 6.84 48.88 5.39"/></mask><mask id="g" x="60.29" y="5.39" width="1.45" height="1.45" maskUnits="userSpaceOnUse"><polygon class="b" points="60.29 5.39 61.74 5.39 61.74 6.84 60.29 6.84 60.29 5.39"/></mask><mask id="h" x="71.7" y="5.39" width="1.45" height="1.45" maskUnits="userSpaceOnUse"><polygon class="b" points="71.7 5.39 73.15 5.39 73.15 6.84 71.7 6.84 71.7 5.39"/></mask><mask id="i" x="83.11" y="5.39" width="1.45" height="1.45" maskUnits="userSpaceOnUse"><polygon class="b" points="83.11 5.39 84.56 5.39 84.56 6.84 83.11 6.84 83.11 5.39"/></mask><mask id="j" x="94.52" y="5.39" width="1.45" height="1.45" maskUnits="userSpaceOnUse"><polygon class="b" points="94.52 5.39 95.97 5.39 95.97 6.84 94.52 6.84 94.52 5.39"/></mask><mask id="k" x="105.93" y="5.39" width="1.45" height="1.45" maskUnits="userSpaceOnUse"><polygon class="b" points="105.93 5.39 107.38 5.39 107.38 6.84 105.93 6.84 105.93 5.39"/></mask><mask id="l" x="117.35" y="5.39" width="1.45" height="1.45" maskUnits="userSpaceOnUse"><polygon class="b" points="117.35 5.39 118.8 5.39 118.8 6.84 117.35 6.84 117.35 5.39"/></mask><mask id="m" x="128.76" y="5.39" width="1.45" height="1.45" maskUnits="userSpaceOnUse"><polygon class="b" points="128.76 5.39 130.21 5.39 130.21 6.84 128.76 6.84 128.76 5.39"/></mask><mask id="n" x="140.17" y="5.39" width="1.45" height="1.45" maskUnits="userSpaceOnUse"><polygon class="b" points="140.17 5.39 141.62 5.39 141.62 6.84 140.17 6.84 140.17 5.39"/></mask><mask id="o" x="151.58" y="5.39" width="1.45" height="1.45" maskUnits="userSpaceOnUse"><polygon class="b" points="151.58 5.39 153.03 5.39 153.03 6.84 151.58 6.84 151.58 5.39"/></mask><mask id="p" x="162.99" y="5.39" width="1.45" height="1.45" maskUnits="userSpaceOnUse"><polygon class="b" points="162.99 5.39 164.44 5.39 164.44 6.84 162.99 6.84 162.99 5.39"/></mask><mask id="q" x="174.4" y="5.39" width="1.45" height="1.45" maskUnits="userSpaceOnUse"><polygon class="b" points="174.4 5.39 175.85 5.39 175.85 6.84 174.4 6.84 174.4 5.39"/></mask><mask id="r" x="185.82" y="5.39" width="1.45" height="1.45" maskUnits="userSpaceOnUse"><polygon class="b" points="185.82 5.39 187.27 5.39 187.27 6.84 185.82 6.84 185.82 5.39"/></mask><mask id="s" x="197.23" y="5.39" width="1.45" height="1.45" maskUnits="userSpaceOnUse"><polygon class="b" points="197.23 5.39 198.68 5.39 198.68 6.84 197.23 6.84 197.23 5.39"/></mask><mask id="t" x="208.64" y="5.39" width="1.45" height="1.45" maskUnits="userSpaceOnUse"><polygon class="b" points="208.64 5.39 210.09 5.39 210.09 6.84 208.64 6.84 208.64 5.39"/></mask><mask id="u" x="220.05" y="5.39" width="1.45" height="1.45" maskUnits="userSpaceOnUse"><polygon class="b" points="220.05 5.39 221.5 5.39 221.5 6.84 220.05 6.84 220.05 5.39"/></mask><mask id="v" x="232.39" y="5.39" width="1.45" height="1.45" maskUnits="userSpaceOnUse"><polygon class="b" points="232.39 5.39 233.84 5.39 233.84 6.84 232.39 6.84 232.39 5.39"/></mask><mask id="w" x="243.8" y="5.39" width="1.45" height="1.45" maskUnits="userSpaceOnUse"><polygon class="b" points="243.8 5.39 245.25 5.39 245.25 6.84 243.8 6.84 243.8 5.39"/></mask><mask id="x" x="255.21" y="5.39" width="1.45" height="1.45" maskUnits="userSpaceOnUse"><polygon class="b" points="255.21 5.39 256.66 5.39 256.66 6.84 255.21 6.84 255.21 5.39"/></mask><mask id="y" x="266.62" y="5.39" width="1.45" height="1.45" maskUnits="userSpaceOnUse"><polygon class="b" points="266.62 5.39 268.07 5.39 268.07 6.84 266.62 6.84 266.62 5.39"/></mask><mask id="z" x="278.03" y="5.39" width="1.45" height="1.45" maskUnits="userSpaceOnUse"><polygon class="b" points="278.03 5.39 279.48 5.39 279.48 6.84 278.03 6.84 278.03 5.39"/></mask><mask id="aa" x="109.98" y="30.92" width="62.05" height="43.16" maskUnits="userSpaceOnUse"><polygon class="b" points="109.98 30.92 172.03 30.92 172.03 74.08 109.98 74.08 109.98 30.92"/></mask><mask id="ab" x="104" y="70.62" width="9.1" height="26.02" maskUnits="userSpaceOnUse"><polygon class="b" points="104 70.62 113.1 70.62 113.1 96.64 104 96.64 104 70.62"/></mask></defs><title>illo-sm-xl-cs</title><rect class="c" width="282" height="138"/><g class="d"><g class="e"><path class="f" d="M4.68,6.12A.73.73,0,0,1,4,6.84a.72.72,0,0,1-.72-.72A.73.73,0,0,1,4,5.39a.73.73,0,0,1,.73.73"/></g><g class="g"><path class="f" d="M16.09,6.12a.73.73,0,0,1-1.45,0,.73.73,0,1,1,1.45,0"/></g><g class="h"><path class="f" d="M27.5,6.12a.72.72,0,0,1-.72.72.73.73,0,0,1-.73-.72.73.73,0,0,1,.73-.73.73.73,0,0,1,.72.73"/></g><g class="i"><path class="f" d="M38.91,6.12a.72.72,0,0,1-.72.72.73.73,0,0,1-.73-.72.73.73,0,0,1,.73-.73.73.73,0,0,1,.72.73"/></g><g class="j"><path class="f" d="M50.33,6.12a.73.73,0,0,1-.73.72.72.72,0,0,1-.72-.72.73.73,0,0,1,.72-.73.73.73,0,0,1,.73.73"/></g><g class="k"><path class="f" d="M61.74,6.12a.73.73,0,0,1-.73.72.72.72,0,0,1-.72-.72A.73.73,0,0,1,61,5.39a.73.73,0,0,1,.73.73"/></g><g class="l"><path class="f" d="M73.15,6.12a.73.73,0,0,1-.73.72.72.72,0,0,1-.72-.72.73.73,0,0,1,.72-.73.73.73,0,0,1,.73.73"/></g><g class="m"><path class="f" d="M84.56,6.12a.73.73,0,0,1-1.45,0,.73.73,0,1,1,1.45,0"/></g><g class="n"><path class="f" d="M96,6.12a.72.72,0,0,1-.72.72.73.73,0,0,1-.73-.72.73.73,0,0,1,.73-.73.73.73,0,0,1,.72.73"/></g><g class="o"><path class="f" d="M107.38,6.12a.72.72,0,0,1-.72.72.73.73,0,0,1-.73-.72.73.73,0,0,1,.73-.73.73.73,0,0,1,.72.73"/></g><g class="p"><path class="f" d="M118.8,6.12a.73.73,0,0,1-.73.72.72.72,0,0,1-.72-.72.73.73,0,0,1,.72-.73.73.73,0,0,1,.73.73"/></g><g class="q"><path class="f" d="M130.21,6.12a.73.73,0,0,1-.73.72.72.72,0,0,1-.72-.72.73.73,0,0,1,.72-.73.73.73,0,0,1,.73.73"/></g><g class="r"><path class="f" d="M141.62,6.12a.73.73,0,0,1-.73.72.72.72,0,0,1-.72-.72.73.73,0,0,1,.72-.73.73.73,0,0,1,.73.73"/></g><g class="s"><path class="f" d="M153,6.12a.73.73,0,0,1-1.45,0,.73.73,0,1,1,1.45,0"/></g><g class="t"><path class="f" d="M164.44,6.12a.72.72,0,0,1-.72.72.73.73,0,0,1-.73-.72.73.73,0,0,1,.73-.73.73.73,0,0,1,.72.73"/></g><g class="u"><path class="f" d="M175.85,6.12a.72.72,0,0,1-.72.72.73.73,0,0,1-.73-.72.73.73,0,0,1,.73-.73.73.73,0,0,1,.72.73"/></g><g class="v"><path class="f" d="M187.27,6.12a.73.73,0,0,1-.73.72.72.72,0,0,1-.72-.72.73.73,0,0,1,.72-.73.73.73,0,0,1,.73.73"/></g><g class="w"><path class="f" d="M198.68,6.12a.73.73,0,0,1-.73.72.72.72,0,0,1-.72-.72.73.73,0,0,1,.72-.73.73.73,0,0,1,.73.73"/></g><g class="x"><path class="f" d="M210.09,6.12a.73.73,0,0,1-.73.72.72.72,0,0,1-.72-.72.73.73,0,0,1,.72-.73.73.73,0,0,1,.73.73"/></g><g class="y"><path class="f" d="M221.5,6.12a.73.73,0,1,1-.73-.73.73.73,0,0,1,.73.73"/></g><path class="f" d="M4.68,16.49a.73.73,0,0,1-.73.73.73.73,0,0,1,0-1.46.73.73,0,0,1,.73.73"/><path class="f" d="M16.09,16.49a.73.73,0,1,1-.72-.73.73.73,0,0,1,.72.73"/><path class="f" d="M27.5,16.49a.73.73,0,0,1-.72.73.73.73,0,0,1,0-1.46.73.73,0,0,1,.72.73"/><path class="f" d="M38.91,16.49a.73.73,0,0,1-.72.73.73.73,0,0,1,0-1.46.73.73,0,0,1,.72.73"/><path class="f" d="M50.33,16.49a.73.73,0,0,1-.73.73.73.73,0,0,1,0-1.46.73.73,0,0,1,.73.73"/><path class="f" d="M61.74,16.49a.73.73,0,0,1-.73.73.73.73,0,0,1,0-1.46.73.73,0,0,1,.73.73"/><path class="f" d="M73.15,16.49a.73.73,0,0,1-.73.73.73.73,0,0,1,0-1.46.73.73,0,0,1,.73.73"/><path class="f" d="M84.56,16.49a.73.73,0,1,1-.72-.73.73.73,0,0,1,.72.73"/><path class="f" d="M96,16.49a.73.73,0,0,1-.72.73.73.73,0,1,1,0-1.46.73.73,0,0,1,.72.73"/><path class="f" d="M107.38,16.49a.73.73,0,0,1-.72.73.73.73,0,0,1,0-1.46.73.73,0,0,1,.72.73"/><path class="f" d="M118.8,16.49a.73.73,0,0,1-.73.73.73.73,0,0,1,0-1.46.73.73,0,0,1,.73.73"/><path class="f" d="M130.21,16.49a.73.73,0,0,1-.73.73.73.73,0,0,1,0-1.46.73.73,0,0,1,.73.73"/><path class="f" d="M141.62,16.49a.73.73,0,0,1-.73.73.73.73,0,0,1,0-1.46.73.73,0,0,1,.73.73"/><path class="f" d="M153,16.49a.73.73,0,1,1-.72-.73.73.73,0,0,1,.72.73"/><path class="f" d="M164.44,16.49a.73.73,0,0,1-.72.73.73.73,0,0,1,0-1.46.73.73,0,0,1,.72.73"/><path class="f" d="M175.85,16.49a.73.73,0,0,1-.72.73.73.73,0,0,1,0-1.46.73.73,0,0,1,.72.73"/><path class="f" d="M187.27,16.49a.73.73,0,0,1-.73.73.73.73,0,0,1,0-1.46.73.73,0,0,1,.73.73"/><path class="f" d="M198.68,16.49a.73.73,0,0,1-.73.73.73.73,0,0,1,0-1.46.73.73,0,0,1,.73.73"/><path class="f" d="M210.09,16.49a.73.73,0,0,1-.73.73.73.73,0,0,1,0-1.46.73.73,0,0,1,.73.73"/><path class="f" d="M221.5,16.49a.73.73,0,1,1-.73-.73.73.73,0,0,1,.73.73"/><path class="f" d="M4.68,26.86a.73.73,0,0,1-.73.73.73.73,0,0,1-.72-.73A.72.72,0,0,1,4,26.14a.73.73,0,0,1,.73.72"/><path class="f" d="M16.09,26.86a.73.73,0,1,1-.72-.72.72.72,0,0,1,.72.72"/><path class="f" d="M27.5,26.86a.73.73,0,0,1-.72.73.73.73,0,0,1-.73-.73.73.73,0,0,1,.73-.72.72.72,0,0,1,.72.72"/><path class="f" d="M38.91,26.86a.73.73,0,0,1-.72.73.73.73,0,0,1-.73-.73.73.73,0,0,1,.73-.72.72.72,0,0,1,.72.72"/><path class="f" d="M50.33,26.86a.73.73,0,0,1-.73.73.73.73,0,0,1-.72-.73.72.72,0,0,1,.72-.72.73.73,0,0,1,.73.72"/><path class="f" d="M61.74,26.86a.73.73,0,0,1-.73.73.73.73,0,0,1-.72-.73.72.72,0,0,1,.72-.72.73.73,0,0,1,.73.72"/><path class="f" d="M73.15,26.86a.73.73,0,0,1-.73.73.73.73,0,0,1-.72-.73.72.72,0,0,1,.72-.72.73.73,0,0,1,.73.72"/><path class="f" d="M84.56,26.86a.73.73,0,1,1-.72-.72.72.72,0,0,1,.72.72"/><path class="f" d="M96,26.86a.73.73,0,0,1-.72.73.73.73,0,0,1-.73-.73.73.73,0,0,1,.73-.72.72.72,0,0,1,.72.72"/><path class="f" d="M107.38,26.86a.73.73,0,0,1-.72.73.73.73,0,0,1-.73-.73.73.73,0,0,1,.73-.72.72.72,0,0,1,.72.72"/><path class="f" d="M118.8,26.86a.73.73,0,0,1-.73.73.73.73,0,0,1-.72-.73.72.72,0,0,1,.72-.72.73.73,0,0,1,.73.72"/><path class="f" d="M130.21,26.86a.73.73,0,0,1-.73.73.73.73,0,0,1-.72-.73.72.72,0,0,1,.72-.72.73.73,0,0,1,.73.72"/><path class="f" d="M141.62,26.86a.73.73,0,0,1-.73.73.73.73,0,0,1-.72-.73.72.72,0,0,1,.72-.72.73.73,0,0,1,.73.72"/><path class="f" d="M153,26.86a.73.73,0,1,1-.72-.72.72.72,0,0,1,.72.72"/><path class="f" d="M164.44,26.86a.73.73,0,0,1-.72.73.73.73,0,0,1-.73-.73.73.73,0,0,1,.73-.72.72.72,0,0,1,.72.72"/><path class="f" d="M175.85,26.86a.73.73,0,0,1-.72.73.73.73,0,0,1-.73-.73.73.73,0,0,1,.73-.72.72.72,0,0,1,.72.72"/><path class="f" d="M187.27,26.86a.73.73,0,0,1-.73.73.73.73,0,0,1-.72-.73.72.72,0,0,1,.72-.72.73.73,0,0,1,.73.72"/><path class="f" d="M198.68,26.86a.73.73,0,0,1-.73.73.73.73,0,0,1-.72-.73.72.72,0,0,1,.72-.72.73.73,0,0,1,.73.72"/><path class="f" d="M210.09,26.86a.73.73,0,0,1-.73.73.73.73,0,0,1-.72-.73.72.72,0,0,1,.72-.72.73.73,0,0,1,.73.72"/><path class="f" d="M221.5,26.86a.73.73,0,1,1-1.45,0,.73.73,0,0,1,1.45,0"/><path class="f" d="M4.68,37.23A.73.73,0,0,1,4,38a.73.73,0,1,1,.73-.73"/><path class="f" d="M16.09,37.23a.73.73,0,1,1-.72-.72.72.72,0,0,1,.72.72"/><path class="f" d="M27.5,37.23a.72.72,0,0,1-.72.73.73.73,0,1,1,0-1.45.72.72,0,0,1,.72.72"/><path class="f" d="M38.91,37.23a.72.72,0,0,1-.72.73.73.73,0,1,1,0-1.45.72.72,0,0,1,.72.72"/><path class="f" d="M50.33,37.23a.73.73,0,0,1-.73.73.73.73,0,1,1,.73-.73"/><path class="f" d="M61.74,37.23A.73.73,0,0,1,61,38a.73.73,0,1,1,.73-.73"/><path class="f" d="M73.15,37.23a.73.73,0,0,1-.73.73.73.73,0,1,1,.73-.73"/><path class="f" d="M84.56,37.23a.73.73,0,1,1-.72-.72.72.72,0,0,1,.72.72"/><path class="f" d="M96,37.23a.72.72,0,0,1-.72.73.73.73,0,1,1,0-1.45.72.72,0,0,1,.72.72"/><path class="f" d="M107.38,37.23a.72.72,0,0,1-.72.73.73.73,0,1,1,0-1.45.72.72,0,0,1,.72.72"/><path class="f" d="M118.8,37.23a.73.73,0,0,1-.73.73.73.73,0,1,1,.73-.73"/><path class="f" d="M130.21,37.23a.73.73,0,0,1-.73.73.73.73,0,1,1,.73-.73"/><path class="f" d="M141.62,37.23a.73.73,0,0,1-.73.73.73.73,0,1,1,.73-.73"/><path class="f" d="M153,37.23a.73.73,0,1,1-.72-.72.72.72,0,0,1,.72.72"/><path class="f" d="M164.44,37.23a.72.72,0,0,1-.72.73.73.73,0,1,1,0-1.45.72.72,0,0,1,.72.72"/><path class="f" d="M175.85,37.23a.72.72,0,0,1-.72.73.73.73,0,1,1,0-1.45.72.72,0,0,1,.72.72"/><path class="f" d="M187.27,37.23a.73.73,0,0,1-.73.73.73.73,0,1,1,.73-.73"/><path class="f" d="M198.68,37.23A.73.73,0,0,1,198,38a.73.73,0,1,1,.73-.73"/><path class="f" d="M210.09,37.23a.73.73,0,0,1-.73.73.73.73,0,1,1,.73-.73"/><path class="f" d="M221.5,37.23a.73.73,0,1,1-.73-.72.72.72,0,0,1,.73.72"/><path class="f" d="M4.68,47.61a.73.73,0,0,1-.73.72.72.72,0,0,1-.72-.72A.73.73,0,0,1,4,46.88a.73.73,0,0,1,.73.73"/><path class="f" d="M16.09,47.61a.73.73,0,0,1-1.45,0,.73.73,0,1,1,1.45,0"/><path class="f" d="M27.5,47.61a.72.72,0,0,1-.72.72.73.73,0,0,1-.73-.72.73.73,0,0,1,.73-.73.73.73,0,0,1,.72.73"/><path class="f" d="M38.91,47.61a.72.72,0,0,1-.72.72.73.73,0,0,1-.73-.72.73.73,0,0,1,.73-.73.73.73,0,0,1,.72.73"/><path class="f" d="M50.33,47.61a.73.73,0,0,1-.73.72.72.72,0,0,1-.72-.72.73.73,0,0,1,.72-.73.73.73,0,0,1,.73.73"/><path class="f" d="M61.74,47.61a.73.73,0,0,1-.73.72.72.72,0,0,1-.72-.72.73.73,0,0,1,.72-.73.73.73,0,0,1,.73.73"/><path class="f" d="M73.15,47.61a.73.73,0,0,1-.73.72.72.72,0,0,1-.72-.72.73.73,0,0,1,.72-.73.73.73,0,0,1,.73.73"/><path class="f" d="M84.56,47.61a.73.73,0,0,1-1.45,0,.73.73,0,1,1,1.45,0"/><path class="f" d="M96,47.61a.72.72,0,0,1-.72.72.73.73,0,0,1-.73-.72.73.73,0,0,1,.73-.73.73.73,0,0,1,.72.73"/><path class="f" d="M107.38,47.61a.72.72,0,0,1-.72.72.73.73,0,0,1-.73-.72.73.73,0,0,1,.73-.73.73.73,0,0,1,.72.73"/><path class="f" d="M118.8,47.61a.73.73,0,0,1-.73.72.72.72,0,0,1-.72-.72.73.73,0,0,1,.72-.73.73.73,0,0,1,.73.73"/><path class="f" d="M130.21,47.61a.73.73,0,0,1-.73.72.72.72,0,0,1-.72-.72.73.73,0,0,1,.72-.73.73.73,0,0,1,.73.73"/><path class="f" d="M141.62,47.61a.73.73,0,0,1-.73.72.72.72,0,0,1-.72-.72.73.73,0,0,1,.72-.73.73.73,0,0,1,.73.73"/><path class="f" d="M153,47.61a.73.73,0,0,1-1.45,0,.73.73,0,1,1,1.45,0"/><path class="f" d="M164.44,47.61a.72.72,0,0,1-.72.72.73.73,0,0,1-.73-.72.73.73,0,0,1,.73-.73.73.73,0,0,1,.72.73"/><path class="f" d="M175.85,47.61a.72.72,0,0,1-.72.72.73.73,0,0,1-.73-.72.73.73,0,0,1,.73-.73.73.73,0,0,1,.72.73"/><path class="f" d="M187.27,47.61a.73.73,0,0,1-.73.72.72.72,0,0,1-.72-.72.73.73,0,0,1,.72-.73.73.73,0,0,1,.73.73"/><path class="f" d="M198.68,47.61a.73.73,0,0,1-.73.72.72.72,0,0,1-.72-.72.73.73,0,0,1,.72-.73.73.73,0,0,1,.73.73"/><path class="f" d="M210.09,47.61a.73.73,0,0,1-.73.72.72.72,0,0,1-.72-.72.73.73,0,0,1,.72-.73.73.73,0,0,1,.73.73"/><path class="f" d="M221.5,47.61a.73.73,0,1,1-.73-.73.73.73,0,0,1,.73.73"/><path class="f" d="M4.68,58a.73.73,0,0,1-.73.73.73.73,0,0,1,0-1.46.73.73,0,0,1,.73.73"/><path class="f" d="M16.09,58a.73.73,0,1,1-.72-.73.73.73,0,0,1,.72.73"/><path class="f" d="M27.5,58a.73.73,0,0,1-.72.73.73.73,0,1,1,0-1.46.73.73,0,0,1,.72.73"/><path class="f" d="M38.91,58a.73.73,0,0,1-.72.73.73.73,0,0,1,0-1.46.73.73,0,0,1,.72.73"/><path class="f" d="M50.33,58a.73.73,0,0,1-.73.73.73.73,0,0,1,0-1.46.73.73,0,0,1,.73.73"/><path class="f" d="M61.74,58a.73.73,0,0,1-.73.73.73.73,0,0,1,0-1.46.73.73,0,0,1,.73.73"/><path class="f" d="M73.15,58a.73.73,0,0,1-.73.73.73.73,0,0,1,0-1.46.73.73,0,0,1,.73.73"/><path class="f" d="M84.56,58a.73.73,0,1,1-.72-.73.73.73,0,0,1,.72.73"/><path class="f" d="M96,58a.73.73,0,0,1-.72.73.73.73,0,0,1,0-1.46A.73.73,0,0,1,96,58"/><path class="f" d="M107.38,58a.73.73,0,0,1-.72.73.73.73,0,0,1,0-1.46.73.73,0,0,1,.72.73"/><path class="f" d="M118.8,58a.73.73,0,0,1-.73.73.73.73,0,0,1,0-1.46.73.73,0,0,1,.73.73"/><path class="f" d="M130.21,58a.73.73,0,0,1-.73.73.73.73,0,0,1,0-1.46.73.73,0,0,1,.73.73"/><path class="f" d="M141.62,58a.73.73,0,0,1-.73.73.73.73,0,0,1,0-1.46.73.73,0,0,1,.73.73"/><path class="f" d="M153,58a.73.73,0,1,1-.72-.73A.73.73,0,0,1,153,58"/><path class="f" d="M164.44,58a.73.73,0,0,1-.72.73.73.73,0,0,1,0-1.46.73.73,0,0,1,.72.73"/><path class="f" d="M175.85,58a.73.73,0,0,1-.72.73.73.73,0,0,1,0-1.46.73.73,0,0,1,.72.73"/><path class="f" d="M187.27,58a.73.73,0,0,1-.73.73.73.73,0,0,1,0-1.46.73.73,0,0,1,.73.73"/><path class="f" d="M198.68,58a.73.73,0,0,1-.73.73.73.73,0,0,1,0-1.46.73.73,0,0,1,.73.73"/><path class="f" d="M210.09,58a.73.73,0,0,1-.73.73.73.73,0,0,1,0-1.46.73.73,0,0,1,.73.73"/><path class="f" d="M221.5,58a.73.73,0,1,1-.73-.73.73.73,0,0,1,.73.73"/><path class="f" d="M4.68,68.35a.73.73,0,0,1-.73.73.73.73,0,0,1-.72-.73A.72.72,0,0,1,4,67.63a.73.73,0,0,1,.73.72"/><path class="f" d="M16.09,68.35a.73.73,0,1,1-.72-.72.72.72,0,0,1,.72.72"/><path class="f" d="M27.5,68.35a.73.73,0,0,1-.72.73.73.73,0,0,1-.73-.73.73.73,0,0,1,.73-.72.72.72,0,0,1,.72.72"/><path class="f" d="M38.91,68.35a.73.73,0,0,1-.72.73.73.73,0,0,1-.73-.73.73.73,0,0,1,.73-.72.72.72,0,0,1,.72.72"/><path class="f" d="M50.33,68.35a.73.73,0,0,1-.73.73.73.73,0,0,1-.72-.73.72.72,0,0,1,.72-.72.73.73,0,0,1,.73.72"/><path class="f" d="M61.74,68.35a.73.73,0,0,1-.73.73.73.73,0,0,1-.72-.73.72.72,0,0,1,.72-.72.73.73,0,0,1,.73.72"/><path class="f" d="M73.15,68.35a.73.73,0,0,1-.73.73.73.73,0,0,1-.72-.73.72.72,0,0,1,.72-.72.73.73,0,0,1,.73.72"/><path class="f" d="M84.56,68.35a.73.73,0,1,1-.72-.72.72.72,0,0,1,.72.72"/><path class="f" d="M96,68.35a.73.73,0,0,1-.72.73.73.73,0,0,1-.73-.73.73.73,0,0,1,.73-.72.72.72,0,0,1,.72.72"/><path class="f" d="M107.38,68.35a.73.73,0,0,1-.72.73.73.73,0,0,1-.73-.73.73.73,0,0,1,.73-.72.72.72,0,0,1,.72.72"/><path class="f" d="M118.8,68.35a.73.73,0,0,1-.73.73.73.73,0,0,1-.72-.73.72.72,0,0,1,.72-.72.73.73,0,0,1,.73.72"/><path class="f" d="M130.21,68.35a.73.73,0,0,1-.73.73.73.73,0,0,1-.72-.73.72.72,0,0,1,.72-.72.73.73,0,0,1,.73.72"/><path class="f" d="M141.62,68.35a.73.73,0,0,1-.73.73.73.73,0,0,1-.72-.73.72.72,0,0,1,.72-.72.73.73,0,0,1,.73.72"/><path class="f" d="M153,68.35a.73.73,0,1,1-.72-.72.72.72,0,0,1,.72.72"/><path class="f" d="M164.44,68.35a.73.73,0,0,1-.72.73.73.73,0,0,1-.73-.73.73.73,0,0,1,.73-.72.72.72,0,0,1,.72.72"/><path class="f" d="M175.85,68.35a.73.73,0,0,1-.72.73.73.73,0,0,1-.73-.73.73.73,0,0,1,.73-.72.72.72,0,0,1,.72.72"/><path class="f" d="M187.27,68.35a.73.73,0,0,1-.73.73.73.73,0,0,1-.72-.73.72.72,0,0,1,.72-.72.73.73,0,0,1,.73.72"/><path class="f" d="M198.68,68.35a.73.73,0,0,1-.73.73.73.73,0,0,1-.72-.73.72.72,0,0,1,.72-.72.73.73,0,0,1,.73.72"/><path class="f" d="M210.09,68.35a.73.73,0,0,1-.73.73.73.73,0,0,1-.72-.73.72.72,0,0,1,.72-.72.73.73,0,0,1,.73.72"/><path class="f" d="M221.5,68.35a.73.73,0,1,1-1.45,0,.73.73,0,0,1,1.45,0"/><path class="f" d="M4.68,78.72a.73.73,0,0,1-.73.73.73.73,0,1,1,.73-.73"/><path class="f" d="M16.09,78.72a.73.73,0,1,1-.72-.72.72.72,0,0,1,.72.72"/><path class="f" d="M27.5,78.72a.72.72,0,0,1-.72.73.73.73,0,1,1,0-1.45.72.72,0,0,1,.72.72"/><path class="f" d="M38.91,78.72a.72.72,0,0,1-.72.73.73.73,0,1,1,0-1.45.72.72,0,0,1,.72.72"/><path class="f" d="M50.33,78.72a.73.73,0,0,1-.73.73.73.73,0,1,1,.73-.73"/><path class="f" d="M61.74,78.72a.73.73,0,0,1-.73.73.73.73,0,1,1,.73-.73"/><path class="f" d="M73.15,78.72a.73.73,0,0,1-.73.73.73.73,0,1,1,.73-.73"/><path class="f" d="M84.56,78.72a.73.73,0,1,1-.72-.72.72.72,0,0,1,.72.72"/><path class="f" d="M96,78.72a.72.72,0,0,1-.72.73.73.73,0,1,1,0-1.45.72.72,0,0,1,.72.72"/><path class="f" d="M107.38,78.72a.72.72,0,0,1-.72.73.73.73,0,1,1,0-1.45.72.72,0,0,1,.72.72"/><path class="f" d="M118.8,78.72a.73.73,0,0,1-.73.73.73.73,0,1,1,.73-.73"/><path class="f" d="M130.21,78.72a.73.73,0,0,1-.73.73.73.73,0,1,1,.73-.73"/><path class="f" d="M141.62,78.72a.73.73,0,0,1-.73.73.73.73,0,1,1,.73-.73"/><path class="f" d="M153,78.72a.73.73,0,1,1-.72-.72.72.72,0,0,1,.72.72"/><path class="f" d="M164.44,78.72a.72.72,0,0,1-.72.73.73.73,0,1,1,0-1.45.72.72,0,0,1,.72.72"/><path class="f" d="M175.85,78.72a.72.72,0,0,1-.72.73.73.73,0,1,1,0-1.45.72.72,0,0,1,.72.72"/><path class="f" d="M187.27,78.72a.73.73,0,0,1-.73.73.73.73,0,1,1,.73-.73"/><path class="f" d="M198.68,78.72a.73.73,0,0,1-.73.73.73.73,0,1,1,.73-.73"/><path class="f" d="M210.09,78.72a.73.73,0,0,1-.73.73.73.73,0,1,1,.73-.73"/><path class="f" d="M221.5,78.72a.73.73,0,1,1-.73-.72.72.72,0,0,1,.73.72"/><path class="f" d="M4.68,89.1a.73.73,0,0,1-.73.72.72.72,0,0,1-.72-.72A.73.73,0,0,1,4,88.37a.73.73,0,0,1,.73.73"/><path class="f" d="M16.09,89.1a.73.73,0,0,1-1.45,0,.73.73,0,1,1,1.45,0"/><path class="f" d="M27.5,89.1a.72.72,0,0,1-.72.72.73.73,0,0,1-.73-.72.73.73,0,0,1,.73-.73.73.73,0,0,1,.72.73"/><path class="f" d="M38.91,89.1a.72.72,0,0,1-.72.72.73.73,0,0,1-.73-.72.73.73,0,0,1,.73-.73.73.73,0,0,1,.72.73"/><path class="f" d="M50.33,89.1a.73.73,0,0,1-.73.72.72.72,0,0,1-.72-.72.73.73,0,0,1,.72-.73.73.73,0,0,1,.73.73"/><path class="f" d="M61.74,89.1a.73.73,0,0,1-.73.72.72.72,0,0,1-.72-.72.73.73,0,0,1,.72-.73.73.73,0,0,1,.73.73"/><path class="f" d="M73.15,89.1a.73.73,0,0,1-.73.72.72.72,0,0,1-.72-.72.73.73,0,0,1,.72-.73.73.73,0,0,1,.73.73"/><path class="f" d="M84.56,89.1a.73.73,0,0,1-1.45,0,.73.73,0,1,1,1.45,0"/><path class="f" d="M96,89.1a.72.72,0,0,1-.72.72.73.73,0,0,1-.73-.72.73.73,0,0,1,.73-.73.73.73,0,0,1,.72.73"/><path class="f" d="M107.38,89.1a.72.72,0,0,1-.72.72.73.73,0,0,1-.73-.72.73.73,0,0,1,.73-.73.73.73,0,0,1,.72.73"/><path class="f" d="M118.8,89.1a.73.73,0,0,1-.73.72.72.72,0,0,1-.72-.72.73.73,0,0,1,.72-.73.73.73,0,0,1,.73.73"/><path class="f" d="M130.21,89.1a.73.73,0,0,1-.73.72.72.72,0,0,1-.72-.72.73.73,0,0,1,.72-.73.73.73,0,0,1,.73.73"/><path class="f" d="M141.62,89.1a.73.73,0,0,1-.73.72.72.72,0,0,1-.72-.72.73.73,0,0,1,.72-.73.73.73,0,0,1,.73.73"/><path class="f" d="M153,89.1a.73.73,0,0,1-1.45,0,.73.73,0,1,1,1.45,0"/><path class="f" d="M164.44,89.1a.72.72,0,0,1-.72.72.73.73,0,0,1-.73-.72.73.73,0,0,1,.73-.73.73.73,0,0,1,.72.73"/><path class="f" d="M175.85,89.1a.72.72,0,0,1-.72.72.73.73,0,0,1-.73-.72.73.73,0,0,1,.73-.73.73.73,0,0,1,.72.73"/><path class="f" d="M187.27,89.1a.73.73,0,0,1-.73.72.72.72,0,0,1-.72-.72.73.73,0,0,1,.72-.73.73.73,0,0,1,.73.73"/><path class="f" d="M198.68,89.1a.73.73,0,0,1-.73.72.72.72,0,0,1-.72-.72.73.73,0,0,1,.72-.73.73.73,0,0,1,.73.73"/><path class="f" d="M210.09,89.1a.73.73,0,0,1-.73.72.72.72,0,0,1-.72-.72.73.73,0,0,1,.72-.73.73.73,0,0,1,.73.73"/><path class="f" d="M221.5,89.1a.73.73,0,1,1-.73-.73.73.73,0,0,1,.73.73"/><path class="f" d="M4.68,99.47a.73.73,0,0,1-.73.73.73.73,0,0,1,0-1.46.73.73,0,0,1,.73.73"/><path class="f" d="M16.09,99.47a.73.73,0,1,1-.72-.73.73.73,0,0,1,.72.73"/><path class="f" d="M27.5,99.47a.73.73,0,0,1-.72.73.73.73,0,1,1,0-1.46.73.73,0,0,1,.72.73"/><path class="f" d="M38.91,99.47a.73.73,0,0,1-.72.73.73.73,0,1,1,0-1.46.73.73,0,0,1,.72.73"/><path class="f" d="M50.33,99.47a.73.73,0,0,1-.73.73.73.73,0,0,1,0-1.46.73.73,0,0,1,.73.73"/><path class="f" d="M61.74,99.47a.73.73,0,0,1-.73.73.73.73,0,0,1,0-1.46.73.73,0,0,1,.73.73"/><path class="f" d="M73.15,99.47a.73.73,0,0,1-.73.73.73.73,0,0,1,0-1.46.73.73,0,0,1,.73.73"/><path class="f" d="M84.56,99.47a.73.73,0,1,1-.72-.73.73.73,0,0,1,.72.73"/><path class="f" d="M96,99.47a.73.73,0,0,1-.72.73.73.73,0,0,1,0-1.46.73.73,0,0,1,.72.73"/><path class="f" d="M107.38,99.47a.73.73,0,0,1-.72.73.73.73,0,0,1,0-1.46.73.73,0,0,1,.72.73"/><path class="f" d="M118.8,99.47a.73.73,0,0,1-.73.73.73.73,0,0,1,0-1.46.73.73,0,0,1,.73.73"/><path class="f" d="M130.21,99.47a.73.73,0,0,1-.73.73.73.73,0,0,1,0-1.46.73.73,0,0,1,.73.73"/><path class="f" d="M141.62,99.47a.73.73,0,0,1-.73.73.73.73,0,0,1,0-1.46.73.73,0,0,1,.73.73"/><path class="f" d="M153,99.47a.73.73,0,1,1-.72-.73.73.73,0,0,1,.72.73"/><path class="f" d="M164.44,99.47a.73.73,0,0,1-.72.73.73.73,0,1,1,0-1.46.73.73,0,0,1,.72.73"/><path class="f" d="M175.85,99.47a.73.73,0,0,1-.72.73.73.73,0,1,1,0-1.46.73.73,0,0,1,.72.73"/><path class="f" d="M187.27,99.47a.73.73,0,0,1-.73.73.73.73,0,0,1,0-1.46.73.73,0,0,1,.73.73"/><path class="f" d="M198.68,99.47a.73.73,0,0,1-.73.73.73.73,0,0,1,0-1.46.73.73,0,0,1,.73.73"/><path class="f" d="M210.09,99.47a.73.73,0,0,1-.73.73.73.73,0,0,1,0-1.46.73.73,0,0,1,.73.73"/><path class="f" d="M221.5,99.47a.73.73,0,1,1-.73-.73.73.73,0,0,1,.73.73"/><path class="f" d="M4.68,109.84a.73.73,0,0,1-.73.73.73.73,0,0,1-.72-.73.72.72,0,0,1,.72-.72.73.73,0,0,1,.73.72"/><path class="f" d="M16.09,109.84a.73.73,0,1,1-.72-.72.72.72,0,0,1,.72.72"/><path class="f" d="M27.5,109.84a.73.73,0,0,1-.72.73.73.73,0,0,1-.73-.73.73.73,0,0,1,.73-.72.72.72,0,0,1,.72.72"/><path class="f" d="M38.91,109.84a.73.73,0,0,1-.72.73.73.73,0,0,1-.73-.73.73.73,0,0,1,.73-.72.72.72,0,0,1,.72.72"/><path class="f" d="M50.33,109.84a.73.73,0,0,1-.73.73.73.73,0,0,1-.72-.73.72.72,0,0,1,.72-.72.73.73,0,0,1,.73.72"/><path class="f" d="M61.74,109.84a.73.73,0,0,1-.73.73.73.73,0,0,1-.72-.73.72.72,0,0,1,.72-.72.73.73,0,0,1,.73.72"/><path class="f" d="M73.15,109.84a.73.73,0,0,1-.73.73.73.73,0,0,1-.72-.73.72.72,0,0,1,.72-.72.73.73,0,0,1,.73.72"/><path class="f" d="M84.56,109.84a.73.73,0,1,1-.72-.72.72.72,0,0,1,.72.72"/><path class="f" d="M96,109.84a.73.73,0,0,1-.72.73.73.73,0,0,1-.73-.73.73.73,0,0,1,.73-.72.72.72,0,0,1,.72.72"/><path class="f" d="M107.38,109.84a.73.73,0,0,1-.72.73.73.73,0,0,1-.73-.73.73.73,0,0,1,.73-.72.72.72,0,0,1,.72.72"/><path class="f" d="M118.8,109.84a.73.73,0,0,1-.73.73.73.73,0,0,1-.72-.73.72.72,0,0,1,.72-.72.73.73,0,0,1,.73.72"/><path class="f" d="M130.21,109.84a.73.73,0,0,1-.73.73.73.73,0,0,1-.72-.73.72.72,0,0,1,.72-.72.73.73,0,0,1,.73.72"/><path class="f" d="M141.62,109.84a.73.73,0,0,1-.73.73.73.73,0,0,1-.72-.73.72.72,0,0,1,.72-.72.73.73,0,0,1,.73.72"/><path class="f" d="M153,109.84a.73.73,0,1,1-.72-.72.72.72,0,0,1,.72.72"/><path class="f" d="M164.44,109.84a.73.73,0,0,1-.72.73.73.73,0,0,1-.73-.73.73.73,0,0,1,.73-.72.72.72,0,0,1,.72.72"/><path class="f" d="M175.85,109.84a.73.73,0,0,1-.72.73.73.73,0,0,1-.73-.73.73.73,0,0,1,.73-.72.72.72,0,0,1,.72.72"/><path class="f" d="M187.27,109.84a.73.73,0,0,1-.73.73.73.73,0,0,1-.72-.73.72.72,0,0,1,.72-.72.73.73,0,0,1,.73.72"/><path class="f" d="M198.68,109.84a.73.73,0,0,1-.73.73.73.73,0,0,1-.72-.73.72.72,0,0,1,.72-.72.73.73,0,0,1,.73.72"/><path class="f" d="M210.09,109.84a.73.73,0,0,1-.73.73.73.73,0,0,1-.72-.73.72.72,0,0,1,.72-.72.73.73,0,0,1,.73.72"/><path class="f" d="M221.5,109.84a.73.73,0,1,1-1.45,0,.73.73,0,0,1,1.45,0"/><path class="f" d="M4.68,120.21a.73.73,0,0,1-.73.73.73.73,0,1,1,.73-.73"/><path class="f" d="M16.09,120.21a.73.73,0,1,1-.72-.72.72.72,0,0,1,.72.72"/><path class="f" d="M27.5,120.21a.72.72,0,0,1-.72.73.73.73,0,1,1,0-1.45.72.72,0,0,1,.72.72"/><path class="f" d="M38.91,120.21a.72.72,0,0,1-.72.73.73.73,0,1,1,0-1.45.72.72,0,0,1,.72.72"/><path class="f" d="M50.33,120.21a.73.73,0,0,1-.73.73.73.73,0,1,1,.73-.73"/><path class="f" d="M61.74,120.21a.73.73,0,0,1-.73.73.73.73,0,1,1,.73-.73"/><path class="f" d="M73.15,120.21a.73.73,0,0,1-.73.73.73.73,0,1,1,.73-.73"/><path class="f" d="M84.56,120.21a.73.73,0,1,1-.72-.72.72.72,0,0,1,.72.72"/><path class="f" d="M96,120.21a.72.72,0,0,1-.72.73.73.73,0,1,1,0-1.45.72.72,0,0,1,.72.72"/><path class="f" d="M107.38,120.21a.72.72,0,0,1-.72.73.73.73,0,1,1,0-1.45.72.72,0,0,1,.72.72"/><path class="f" d="M118.8,120.21a.73.73,0,0,1-.73.73.73.73,0,1,1,.73-.73"/><path class="f" d="M130.21,120.21a.73.73,0,0,1-.73.73.73.73,0,1,1,.73-.73"/><path class="f" d="M141.62,120.21a.73.73,0,0,1-.73.73.73.73,0,1,1,.73-.73"/><path class="f" d="M153,120.21a.73.73,0,1,1-.72-.72.72.72,0,0,1,.72.72"/><path class="f" d="M164.44,120.21a.72.72,0,0,1-.72.73.73.73,0,1,1,0-1.45.72.72,0,0,1,.72.72"/><path class="f" d="M175.85,120.21a.72.72,0,0,1-.72.73.73.73,0,1,1,0-1.45.72.72,0,0,1,.72.72"/><path class="f" d="M187.27,120.21a.73.73,0,0,1-.73.73.73.73,0,1,1,.73-.73"/><path class="f" d="M198.68,120.21a.73.73,0,0,1-.73.73.73.73,0,1,1,.73-.73"/><path class="f" d="M210.09,120.21a.73.73,0,0,1-.73.73.73.73,0,1,1,.73-.73"/><path class="f" d="M221.5,120.21a.73.73,0,1,1-.73-.72.72.72,0,0,1,.73.72"/><path class="f" d="M4.68,130.59a.73.73,0,0,1-.73.72.72.72,0,0,1-.72-.72.73.73,0,0,1,.72-.73.73.73,0,0,1,.73.73"/><path class="f" d="M16.09,130.59a.73.73,0,0,1-1.45,0,.73.73,0,1,1,1.45,0"/><path class="f" d="M27.5,130.59a.72.72,0,0,1-.72.72.73.73,0,0,1-.73-.72.73.73,0,0,1,.73-.73.73.73,0,0,1,.72.73"/><path class="f" d="M38.91,130.59a.72.72,0,0,1-.72.72.73.73,0,0,1-.73-.72.73.73,0,0,1,.73-.73.73.73,0,0,1,.72.73"/><path class="f" d="M50.33,130.59a.73.73,0,0,1-.73.72.72.72,0,0,1-.72-.72.73.73,0,0,1,.72-.73.73.73,0,0,1,.73.73"/><path class="f" d="M61.74,130.59a.73.73,0,0,1-.73.72.72.72,0,0,1-.72-.72.73.73,0,0,1,.72-.73.73.73,0,0,1,.73.73"/><path class="f" d="M73.15,130.59a.73.73,0,0,1-.73.72.72.72,0,0,1-.72-.72.73.73,0,0,1,.72-.73.73.73,0,0,1,.73.73"/><path class="f" d="M84.56,130.59a.73.73,0,0,1-1.45,0,.73.73,0,1,1,1.45,0"/><path class="f" d="M96,130.59a.72.72,0,0,1-.72.72.73.73,0,0,1-.73-.72.73.73,0,0,1,.73-.73.73.73,0,0,1,.72.73"/><path class="f" d="M107.38,130.59a.72.72,0,0,1-.72.72.73.73,0,0,1-.73-.72.73.73,0,0,1,.73-.73.73.73,0,0,1,.72.73"/><path class="f" d="M118.8,130.59a.73.73,0,0,1-.73.72.72.72,0,0,1-.72-.72.73.73,0,0,1,.72-.73.73.73,0,0,1,.73.73"/><path class="f" d="M130.21,130.59a.73.73,0,0,1-.73.72.72.72,0,0,1-.72-.72.73.73,0,0,1,.72-.73.73.73,0,0,1,.73.73"/><path class="f" d="M141.62,130.59a.73.73,0,0,1-.73.72.72.72,0,0,1-.72-.72.73.73,0,0,1,.72-.73.73.73,0,0,1,.73.73"/><path class="f" d="M153,130.59a.73.73,0,0,1-1.45,0,.73.73,0,1,1,1.45,0"/><path class="f" d="M164.44,130.59a.72.72,0,0,1-.72.72.73.73,0,0,1-.73-.72.73.73,0,0,1,.73-.73.73.73,0,0,1,.72.73"/><path class="f" d="M175.85,130.59a.72.72,0,0,1-.72.72.73.73,0,0,1-.73-.72.73.73,0,0,1,.73-.73.73.73,0,0,1,.72.73"/><path class="f" d="M187.27,130.59a.73.73,0,0,1-.73.72.72.72,0,0,1-.72-.72.73.73,0,0,1,.72-.73.73.73,0,0,1,.73.73"/><path class="f" d="M198.68,130.59a.73.73,0,0,1-.73.72.72.72,0,0,1-.72-.72.73.73,0,0,1,.72-.73.73.73,0,0,1,.73.73"/><path class="f" d="M210.09,130.59a.73.73,0,0,1-.73.72.72.72,0,0,1-.72-.72.73.73,0,0,1,.72-.73.73.73,0,0,1,.73.73"/><path class="f" d="M221.5,130.59a.73.73,0,1,1-.73-.73.73.73,0,0,1,.73.73"/><g class="z"><path class="f" d="M233.84,6.12a.73.73,0,0,1-.73.72.72.72,0,0,1-.72-.72.73.73,0,0,1,.72-.73.73.73,0,0,1,.73.73"/></g><g class="aa"><path class="f" d="M245.25,6.12a.73.73,0,0,1-.73.72.72.72,0,0,1-.72-.72.73.73,0,0,1,.72-.73.73.73,0,0,1,.73.73"/></g><g class="ab"><path class="f" d="M256.66,6.12a.72.72,0,0,1-.72.72.73.73,0,0,1-.73-.72.73.73,0,0,1,.73-.73.73.73,0,0,1,.72.73"/></g><g class="ac"><path class="f" d="M268.07,6.12a.72.72,0,0,1-.72.72.73.73,0,0,1-.73-.72.73.73,0,0,1,.73-.73.73.73,0,0,1,.72.73"/></g><g class="ad"><path class="f" d="M279.48,6.12a.72.72,0,0,1-.72.72.73.73,0,0,1-.73-.72.73.73,0,0,1,.73-.73.73.73,0,0,1,.72.73"/></g><path class="f" d="M233.84,16.49a.73.73,0,0,1-.73.73.73.73,0,0,1,0-1.46.73.73,0,0,1,.73.73"/><path class="f" d="M245.25,16.49a.73.73,0,0,1-.73.73.73.73,0,0,1,0-1.46.73.73,0,0,1,.73.73"/><path class="f" d="M256.66,16.49a.73.73,0,0,1-.72.73.73.73,0,1,1,0-1.46.73.73,0,0,1,.72.73"/><path class="f" d="M268.07,16.49a.73.73,0,0,1-.72.73.73.73,0,0,1,0-1.46.73.73,0,0,1,.72.73"/><path class="f" d="M279.48,16.49a.73.73,0,0,1-.72.73.73.73,0,0,1,0-1.46.73.73,0,0,1,.72.73"/><path class="f" d="M233.84,26.86a.73.73,0,0,1-.73.73.73.73,0,0,1-.72-.73.72.72,0,0,1,.72-.72.73.73,0,0,1,.73.72"/><path class="f" d="M245.25,26.86a.73.73,0,0,1-.73.73.73.73,0,0,1-.72-.73.72.72,0,0,1,.72-.72.73.73,0,0,1,.73.72"/><path class="f" d="M256.66,26.86a.73.73,0,0,1-.72.73.73.73,0,0,1-.73-.73.73.73,0,0,1,.73-.72.72.72,0,0,1,.72.72"/><path class="f" d="M268.07,26.86a.73.73,0,0,1-.72.73.73.73,0,0,1-.73-.73.73.73,0,0,1,.73-.72.72.72,0,0,1,.72.72"/><path class="f" d="M279.48,26.86a.73.73,0,0,1-.72.73.73.73,0,0,1-.73-.73.73.73,0,0,1,.73-.72.72.72,0,0,1,.72.72"/><path class="f" d="M233.84,37.23a.73.73,0,0,1-.73.73.73.73,0,1,1,.73-.73"/><path class="f" d="M245.25,37.23a.73.73,0,0,1-.73.73.73.73,0,1,1,.73-.73"/><path class="f" d="M256.66,37.23a.72.72,0,0,1-.72.73.73.73,0,1,1,0-1.45.72.72,0,0,1,.72.72"/><path class="f" d="M268.07,37.23a.72.72,0,0,1-.72.73.73.73,0,1,1,0-1.45.72.72,0,0,1,.72.72"/><path class="f" d="M279.48,37.23a.72.72,0,0,1-.72.73.73.73,0,1,1,0-1.45.72.72,0,0,1,.72.72"/><path class="f" d="M233.84,47.61a.73.73,0,0,1-.73.72.72.72,0,0,1-.72-.72.73.73,0,0,1,.72-.73.73.73,0,0,1,.73.73"/><path class="f" d="M245.25,47.61a.73.73,0,0,1-.73.72.72.72,0,0,1-.72-.72.73.73,0,0,1,.72-.73.73.73,0,0,1,.73.73"/><path class="f" d="M256.66,47.61a.72.72,0,0,1-.72.72.73.73,0,0,1-.73-.72.73.73,0,0,1,.73-.73.73.73,0,0,1,.72.73"/><path class="f" d="M268.07,47.61a.72.72,0,0,1-.72.72.73.73,0,0,1-.73-.72.73.73,0,0,1,.73-.73.73.73,0,0,1,.72.73"/><path class="f" d="M279.48,47.61a.72.72,0,0,1-.72.72.73.73,0,0,1-.73-.72.73.73,0,0,1,.73-.73.73.73,0,0,1,.72.73"/><path class="f" d="M233.84,58a.73.73,0,0,1-.73.73.73.73,0,0,1,0-1.46.73.73,0,0,1,.73.73"/><path class="f" d="M245.25,58a.73.73,0,0,1-.73.73.73.73,0,0,1,0-1.46.73.73,0,0,1,.73.73"/><path class="f" d="M256.66,58a.73.73,0,0,1-.72.73.73.73,0,1,1,0-1.46.73.73,0,0,1,.72.73"/><path class="f" d="M268.07,58a.73.73,0,0,1-.72.73.73.73,0,0,1,0-1.46.73.73,0,0,1,.72.73"/><path class="f" d="M279.48,58a.73.73,0,0,1-.72.73.73.73,0,0,1,0-1.46.73.73,0,0,1,.72.73"/><path class="f" d="M233.84,68.35a.73.73,0,0,1-.73.73.73.73,0,0,1-.72-.73.72.72,0,0,1,.72-.72.73.73,0,0,1,.73.72"/><path class="f" d="M245.25,68.35a.73.73,0,0,1-.73.73.73.73,0,0,1-.72-.73.72.72,0,0,1,.72-.72.73.73,0,0,1,.73.72"/><path class="f" d="M256.66,68.35a.73.73,0,0,1-.72.73.73.73,0,0,1-.73-.73.73.73,0,0,1,.73-.72.72.72,0,0,1,.72.72"/><path class="f" d="M268.07,68.35a.73.73,0,0,1-.72.73.73.73,0,0,1-.73-.73.73.73,0,0,1,.73-.72.72.72,0,0,1,.72.72"/><path class="f" d="M279.48,68.35a.73.73,0,0,1-.72.73.73.73,0,0,1-.73-.73.73.73,0,0,1,.73-.72.72.72,0,0,1,.72.72"/><path class="f" d="M233.84,78.72a.73.73,0,0,1-.73.73.73.73,0,1,1,.73-.73"/><path class="f" d="M245.25,78.72a.73.73,0,0,1-.73.73.73.73,0,1,1,.73-.73"/><path class="f" d="M256.66,78.72a.72.72,0,0,1-.72.73.73.73,0,1,1,0-1.45.72.72,0,0,1,.72.72"/><path class="f" d="M268.07,78.72a.72.72,0,0,1-.72.73.73.73,0,1,1,0-1.45.72.72,0,0,1,.72.72"/><path class="f" d="M279.48,78.72a.72.72,0,0,1-.72.73.73.73,0,1,1,0-1.45.72.72,0,0,1,.72.72"/><path class="f" d="M233.84,89.1a.73.73,0,0,1-.73.72.72.72,0,0,1-.72-.72.73.73,0,0,1,.72-.73.73.73,0,0,1,.73.73"/><path class="f" d="M245.25,89.1a.73.73,0,0,1-.73.72.72.72,0,0,1-.72-.72.73.73,0,0,1,.72-.73.73.73,0,0,1,.73.73"/><path class="f" d="M256.66,89.1a.72.72,0,0,1-.72.72.73.73,0,0,1-.73-.72.73.73,0,0,1,.73-.73.73.73,0,0,1,.72.73"/><path class="f" d="M268.07,89.1a.72.72,0,0,1-.72.72.73.73,0,0,1-.73-.72.73.73,0,0,1,.73-.73.73.73,0,0,1,.72.73"/><path class="f" d="M279.48,89.1a.72.72,0,0,1-.72.72.73.73,0,0,1-.73-.72.73.73,0,0,1,.73-.73.73.73,0,0,1,.72.73"/><path class="f" d="M233.84,99.47a.73.73,0,0,1-.73.73.73.73,0,0,1,0-1.46.73.73,0,0,1,.73.73"/><path class="f" d="M245.25,99.47a.73.73,0,0,1-.73.73.73.73,0,0,1,0-1.46.73.73,0,0,1,.73.73"/><path class="f" d="M256.66,99.47a.73.73,0,0,1-.72.73.73.73,0,1,1,0-1.46.73.73,0,0,1,.72.73"/><path class="f" d="M268.07,99.47a.73.73,0,0,1-.72.73.73.73,0,0,1,0-1.46.73.73,0,0,1,.72.73"/><path class="f" d="M279.48,99.47a.73.73,0,0,1-.72.73.73.73,0,0,1,0-1.46.73.73,0,0,1,.72.73"/><path class="f" d="M233.84,109.84a.73.73,0,0,1-.73.73.73.73,0,0,1-.72-.73.72.72,0,0,1,.72-.72.73.73,0,0,1,.73.72"/><path class="f" d="M245.25,109.84a.73.73,0,0,1-.73.73.73.73,0,0,1-.72-.73.72.72,0,0,1,.72-.72.73.73,0,0,1,.73.72"/><path class="f" d="M256.66,109.84a.73.73,0,0,1-.72.73.73.73,0,0,1-.73-.73.73.73,0,0,1,.73-.72.72.72,0,0,1,.72.72"/><path class="f" d="M268.07,109.84a.73.73,0,0,1-.72.73.73.73,0,0,1-.73-.73.73.73,0,0,1,.73-.72.72.72,0,0,1,.72.72"/><path class="f" d="M279.48,109.84a.73.73,0,0,1-.72.73.73.73,0,0,1-.73-.73.73.73,0,0,1,.73-.72.72.72,0,0,1,.72.72"/><path class="f" d="M233.84,120.21a.73.73,0,0,1-.73.73.73.73,0,1,1,.73-.73"/><path class="f" d="M245.25,120.21a.73.73,0,0,1-.73.73.73.73,0,1,1,.73-.73"/><path class="f" d="M256.66,120.21a.72.72,0,0,1-.72.73.73.73,0,1,1,0-1.45.72.72,0,0,1,.72.72"/><path class="f" d="M268.07,120.21a.72.72,0,0,1-.72.73.73.73,0,1,1,0-1.45.72.72,0,0,1,.72.72"/><path class="f" d="M279.48,120.21a.72.72,0,0,1-.72.73.73.73,0,1,1,0-1.45.72.72,0,0,1,.72.72"/><path class="f" d="M233.84,130.59a.73.73,0,0,1-.73.72.72.72,0,0,1-.72-.72.73.73,0,0,1,.72-.73.73.73,0,0,1,.73.73"/><path class="f" d="M245.25,130.59a.73.73,0,0,1-.73.72.72.72,0,0,1-.72-.72.73.73,0,0,1,.72-.73.73.73,0,0,1,.73.73"/><path class="f" d="M256.66,130.59a.72.72,0,0,1-.72.72.73.73,0,0,1-.73-.72.73.73,0,0,1,.73-.73.73.73,0,0,1,.72.73"/><path class="f" d="M268.07,130.59a.72.72,0,0,1-.72.72.73.73,0,0,1-.73-.72.73.73,0,0,1,.73-.73.73.73,0,0,1,.72.73"/><path class="f" d="M279.48,130.59a.72.72,0,0,1-.72.72.73.73,0,0,1-.73-.72.73.73,0,0,1,.73-.73.73.73,0,0,1,.72.73"/></g><g class="ae"><path class="af" d="M172,72.71V62a31,31,0,1,0-62,0v8.58l4.29,3.46v-12a26.74,26.74,0,1,1,53.47,0v9.55Z"/></g><g class="ag"><path class="af" d="M113.1,96.64h-2.74c-4.17,0-6.36-5.82-6.36-13s2.41-13,6.36-13h2.74"/></g><path class="ah" d="M138.56,106a1.49,1.49,0,0,1,0-3l23.22,0c4.47,0,6.74-1.92,6.74-5.72v-.94a1.49,1.49,0,1,1,3,0v.94c0,5.45-3.63,8.7-9.71,8.7l-23.21,0Z"/><path class="ai" d="M115.29,70.62H112v26h3.29a2.29,2.29,0,0,0,2.29-2.29V72.92a2.29,2.29,0,0,0-2.29-2.3"/><path class="aj" d="M169,70.62h2.75c4.17,0,6.35,5.83,6.35,13s-2.41,13-6.35,13H169"/><path class="ai" d="M166.83,96.64h3.29v-26h-3.29a2.3,2.3,0,0,0-2.29,2.3V94.35a2.29,2.29,0,0,0,2.29,2.29"/><path class="b" d="M144,107.45h-7.83a.47.47,0,0,1-.46-.46v-5.42a.47.47,0,0,1,.46-.46H144a.47.47,0,0,1,.46.46V107a.47.47,0,0,1-.46.46"/></svg>